<svg xmlns="http://www.w3.org/2000/svg" width="640" height="480" viewBox="0 0 640 480">
  <defs>
    <linearGradient id="deep" x1="0%" y1="0%" x2="0%" y2="100%">
      <stop offset="0%" stop-color="#023047" />
      <stop offset="100%" stop-color="#219ebc" />
    </linearGradient>
    <linearGradient id="glow" x1="0%" y1="0%" x2="100%" y2="100%">
      <stop offset="0%" stop-color="#8ecae6" />
      <stop offset="100%" stop-color="#ffb703" />
    </linearGradient>
  </defs>
  <rect width="640" height="480" fill="url(#deep)" />
  <ellipse cx="320" cy="360" rx="220" ry="80" fill="#012a4a" opacity="0.6" />
  <circle cx="420" cy="160" r="90" fill="url(#glow)" opacity="0.65" />
  <path d="M200 220 C240 180, 300 180, 360 200 C420 220, 460 200, 520 220" stroke="#8ecae6" stroke-width="12" stroke-linecap="round" fill="none" opacity="0.6" />
  <path d="M240 260 C280 240, 320 240, 360 260 C400 280, 440 260, 500 260" stroke="#ffb703" stroke-width="10" stroke-linecap="round" fill="none" opacity="0.5" />
  <circle cx="220" cy="180" r="14" fill="#ffb703" />
  <circle cx="260" cy="200" r="10" fill="#ffb703" />
  <circle cx="300" cy="180" r="8" fill="#ffb703" />
  <circle cx="460" cy="220" r="12" fill="#ffb703" />
  <circle cx="500" cy="200" r="9" fill="#ffb703" />
</svg>

