<svg xmlns="http://www.w3.org/2000/svg" width="640" height="480" viewBox="0 0 640 480">
  <defs>
    <linearGradient id="paper" x1="0%" y1="0%" x2="100%" y2="100%">
      <stop offset="0%" stop-color="#edf2f4" />
      <stop offset="100%" stop-color="#ced4da" />
    </linearGradient>
    <linearGradient id="bg" x1="0%" y1="0%" x2="100%" y2="0%">
      <stop offset="0%" stop-color="#e0fbfc" />
      <stop offset="100%" stop-color="#98c1d9" />
    </linearGradient>
  </defs>
  <rect width="640" height="480" fill="url(#bg)" />
  <rect x="170" y="80" width="300" height="360" rx="28" fill="url(#paper)" />
  <rect x="200" y="120" width="240" height="24" rx="12" fill="#3d5a80" opacity="0.8" />
  <rect x="200" y="170" width="200" height="18" rx="9" fill="#ee6c4d" opacity="0.8" />
  <rect x="200" y="210" width="220" height="18" rx="9" fill="#3d5a80" opacity="0.7" />
  <rect x="200" y="250" width="180" height="18" rx="9" fill="#ee6c4d" opacity="0.8" />
  <rect x="200" y="290" width="220" height="18" rx="9" fill="#3d5a80" opacity="0.7" />
  <rect x="200" y="330" width="160" height="18" rx="9" fill="#ee6c4d" opacity="0.8" />
  <circle cx="240" cy="410" r="18" fill="#3d5a80" />
  <circle cx="320" cy="410" r="18" fill="#ee6c4d" />
  <circle cx="400" cy="410" r="18" fill="#3d5a80" />
  <path d="M120 120 L160 80" stroke="#3d5a80" stroke-width="14" stroke-linecap="round" />
  <path d="M460 80 L520 140" stroke="#3d5a80" stroke-width="14" stroke-linecap="round" />
</svg>

