<svg xmlns="http://www.w3.org/2000/svg" viewBox="0 0 64 64" role="presentation">
  <defs>
    <linearGradient id="femaleGradient" x1="0%" y1="0%" x2="100%" y2="100%">
      <stop offset="0%" stop-color="#ffcc00" />
      <stop offset="100%" stop-color="#d4a900" />
    </linearGradient>
  </defs>
  <circle cx="32" cy="32" r="30" fill="#f5f1e3" />
  <path
    d="M32 10c-9.94 0-18 8.06-18 18 0 6.18 3.16 11.61 7.94 14.76-6.16 2.96-10.7 9.09-11.64 16.24H53.7c-.94-7.15-5.48-13.28-11.64-16.24C46.84 39.61 50 34.18 50 28c0-9.94-8.06-18-18-18Z"
    fill="#dd0000"
    opacity="0.9"
  />
  <path
    d="M24.5 48.5c1.9-3.5 4.9-5.5 7.5-5.5s5.6 2 7.5 5.5l2.5 4.5H22l2.5-4.5Z"
    fill="url(#femaleGradient)"
  />
</svg>

